<svg aria-hidden="true" style="position: absolute; width: 0; height: 0; overflow: hidden;" version="1.1" xmlns="http://www.w3.org/2000/svg" xmlns:xlink="http://www.w3.org/1999/xlink">
<defs>
<symbol id="icon-close-large" viewBox="0 0 32 32">
<path fill="#fff" style="fill: var(--color1, #fff)" opacity="0.8" d="M24.122 7.152c0.521 0.521 0.521 1.365 0 1.886l-6.599 6.599 6.599 6.601c0.521 0.521 0.521 1.365 0 1.886s-1.365 0.521-1.886 0l-6.599-6.601-6.601 6.601c-0.521 0.521-1.365 0.521-1.886 0s-0.521-1.365 0-1.886l6.601-6.601-6.601-6.599c-0.521-0.521-0.521-1.365 0-1.886s1.365-0.521 1.886 0l6.601 6.599 6.599-6.599c0.521-0.521 1.365-0.521 1.886 0z"></path>
</symbol>
</defs>
</svg>
